<svg xmlns="http://www.w3.org/2000/svg" width="18" height="19.714" viewBox="0 0 18 19.714" fill="#fff"><g transform="translate(0.057 -3.143)"><g transform="translate(4.644 2.697)"><g transform="translate(-4.701 0.446)"><path d="M17.534,19.115a.468.468,0,0,1-.468-.468A8.123,8.123,0,0,0,9,10.49,8.123,8.123,0,0,0,.932,18.648a.466.466,0,0,1-.932,0A9.048,9.048,0,0,1,9,9.566a9.055,9.055,0,0,1,9,9.082.468.468,0,0,1-.466.468Z" transform="translate(0 0.598)" /><path d="M9,8.8A4.4,4.4,0,0,1,7.481.286a.466.466,0,0,1,.395.032A.46.46,0,0,1,8.1.646a3.38,3.38,0,0,0,4.561,2.663.464.464,0,0,1,.624.359,4.468,4.468,0,0,1,.073.731A4.387,4.387,0,0,1,9,8.8ZM7.325,1.382a3.451,3.451,0,1,0,5.1,3.017V4.355a4.3,4.3,0,0,1-5.1-2.973Z" transform="translate(0 -0.007)" /><path d="M11.475,4.47A4.344,4.344,0,0,1,7.187.8.466.466,0,0,1,7.481.286a4.33,4.33,0,0,1,5.807,3.382.466.466,0,0,1-.294.513A4.306,4.306,0,0,1,11.475,4.47ZM8.193,1.037A3.356,3.356,0,0,0,12.28,3.431,3.356,3.356,0,0,0,8.193,1.037Z" transform="translate(0 -0.007)" /></g></g></g></svg>