<svg xmlns="http://www.w3.org/2000/svg" xmlns:xlink="http://www.w3.org/1999/xlink" width="18" height="20" viewBox="0 0 18 20" fill="#a6a6a6"><defs><clipPath id="a"><rect width="18" height="20" transform="translate(-0.461 -0.8)" fill="none"/></clipPath></defs><g transform="translate(0.099 0)"><g transform="translate(0.361 0.8)" clip-path="url(#a)"><g transform="translate(0.006 0.906)"><path d="M1.308,16.777a.427.427,0,0,1-.427-.51l.689-3.2a8.294,8.294,0,1,1,2.713,2.447L1.47,16.74a.412.412,0,0,1-.163.036Zm3.017-2.17a.43.43,0,0,1,.219.061,7.462,7.462,0,1,0-2.17-1.953.418.418,0,0,1,.074.344l-.555,2.566,2.253-.986a.429.429,0,0,1,.17-.033Z" transform="translate(-0.051 0.012)" /><path d="M19.239,41.3a.427.427,0,0,1-.3-.723L20.2,39.307a.427.427,0,0,1,.611.588L19.548,41.17a.425.425,0,0,1-.309.127Z" transform="translate(-15.423 -32.116)" /><path d="M40.361,41.285a.429.429,0,0,1-.3-.723L41.324,39.3a.429.429,0,0,1,.617.588l-1.266,1.275A.427.427,0,0,1,40.361,41.285Z" transform="translate(-32.726 -32.105)" /><path d="M61.469,41.3a.427.427,0,0,1-.3-.723l1.266-1.266a.427.427,0,0,1,.611.588L61.778,41.17A.427.427,0,0,1,61.469,41.3Z" transform="translate(-50.015 -32.116)" /></g></g></g></svg>