<svg xmlns="http://www.w3.org/2000/svg" xmlns:xlink="http://www.w3.org/1999/xlink" width="18" height="20" viewBox="0 0 18 20"><defs><clipPath id="a"><rect width="18" height="20" transform="translate(371 4660)" fill="none"/></clipPath></defs><g transform="translate(-371 -4659.935)"><g transform="translate(0 -0.065)" clip-path="url(#a)"><g transform="translate(371 4662.562)"><path d="M14.936,14.876H3.064A3.067,3.067,0,0,1,0,11.812V3.067A3.067,3.067,0,0,1,3.064,0H14.936A3.067,3.067,0,0,1,18,3.064v8.745a3.067,3.067,0,0,1-3.064,3.067ZM3.064,1.206A1.864,1.864,0,0,0,1.206,3.064v8.745A1.864,1.864,0,0,0,3.07,13.673H14.936A1.867,1.867,0,0,0,16.8,11.809V3.064a1.867,1.867,0,0,0-1.864-1.858Z" fill="#fff"/><path d="M14.244,13.886a4.6,4.6,0,0,1-1.686-.32l-4.71-1.846a.6.6,0,0,1,.44-1.119L13,12.451a3.438,3.438,0,0,0,2.5,0L20.2,10.6a.6.6,0,1,1,.437,1.119l-4.707,1.846a4.6,4.6,0,0,1-1.689.32Z" transform="translate(-5.245 -7.361)" fill="#fff"/></g></g></g></svg>