<svg xmlns="http://www.w3.org/2000/svg" xmlns:xlink="http://www.w3.org/1999/xlink" width="18" height="20" viewBox="0 0 18 20" fill="#a6a6a6"><defs><clipPath id="a"><rect width="18" height="20" transform="translate(0.199)" /></clipPath></defs><g transform="translate(-0.199)" clip-path="url(#a)"><g transform="translate(0.142 0)"><path d="M14.278,19.987h-4a.5.5,0,0,1-.505-.5V10.576H6.433V19.5a.5.5,0,0,1-.5.5h-2.5A3.438,3.438,0,0,1,0,16.551V5.263a.5.5,0,0,1,.255-.437L8.707.064a.5.5,0,0,1,.5,0l8.261,4.759a.505.505,0,0,1,.251.435V16.551A3.438,3.438,0,0,1,14.278,19.987Zm-3.5-1h3.5a2.438,2.438,0,0,0,2.434-2.434v-11L8.95,1.079,1,5.556V16.551a2.436,2.436,0,0,0,2.434,2.434H5.43V10.075a.5.5,0,0,1,.5-.5h4.343a.5.5,0,0,1,.5.5Z" transform="translate(0 0.003)"/></g></g></svg>