<svg xmlns="http://www.w3.org/2000/svg" xmlns:xlink="http://www.w3.org/1999/xlink" width="50" height="42" viewBox="0 0 50 42"><defs><clipPath id="a" fill="#fff"><rect width="50" height="42" transform="translate(680 2687.962)" fill="none"/></clipPath></defs><g transform="translate(-75 -57)"><g transform="translate(-605 -2630.962)" clip-path="url(#a)"><path d="M0,0H41.857V41.857H0ZM38.43,31.877c-.306-1.915-1.554-3.516-5.239-5.014-1.281-.6-2.712-1.022-3.134-1.99a2.075,2.075,0,0,1-.082-1.227A2,2,0,0,1,32.618,22.5a2.833,2.833,0,0,1,1.7,1.567c1.805-1.179,1.805-1.179,3.059-1.962a6.872,6.872,0,0,0-1.022-1.355c-1.1-1.233-2.561-1.86-4.939-1.805l-1.233.157A5.614,5.614,0,0,0,27.2,20.849a5.484,5.484,0,0,0,.994,7.8c2.378,1.778,5.859,2.166,6.309,3.843.416,2.044-1.519,2.7-3.434,2.459a4.6,4.6,0,0,1-3.059-2.33l-3.189,1.833a6.983,6.983,0,0,0,1.41,1.935c3.032,3.059,10.621,2.9,11.983-1.751a5.992,5.992,0,0,0,.129-2.875ZM22.761,19.238H18.843c0,3.379-.021,6.738-.021,10.124,0,2.146.109,4.122-.238,4.729-.579,1.2-2.058,1.049-2.732.838a3.325,3.325,0,0,1-1.444-1.492,1.737,1.737,0,0,0-.225-.34L11,35.059a6.146,6.146,0,0,0,2.31,2.644,7.67,7.67,0,0,0,5.593.709,4.9,4.9,0,0,0,3.154-2.459c.892-1.622.7-3.61.695-5.839.021-3.584,0-7.167,0-10.778Z" transform="translate(684.186 2688.053)" /></g></g></svg>