<svg xmlns="http://www.w3.org/2000/svg" xmlns:xlink="http://www.w3.org/1999/xlink" width="18" height="20" viewBox="0 0 18 20"><defs><clipPath id="a"><rect width="18" height="20" transform="translate(371 4610)" fill="none"/></clipPath></defs><g transform="translate(-371 -4611)"><g transform="translate(0 1)" clip-path="url(#a)"><g transform="translate(372.305 4610)"><path d="M7.7,20a.512.512,0,0,1-.377-.165C7.02,19.513,0,11.669,0,7.6a7.7,7.7,0,0,1,15.39,0c0,4.074-7.02,11.9-7.319,12.233A.512.512,0,0,1,7.7,20Zm0-18.988A6.647,6.647,0,0,0,1.012,7.6c0,3.18,5.221,9.435,6.684,11.125,1.462-1.69,6.682-7.934,6.682-11.125A6.647,6.647,0,0,0,7.7,1.012Z" fill="#fff"/><path d="M7.8,11.406a3.705,3.705,0,1,1,3.746-3.7,3.705,3.705,0,0,1-3.746,3.7Zm0-6.4A2.693,2.693,0,1,0,10.531,7.7,2.693,2.693,0,0,0,7.8,5.009Z" fill="#fff"/></g></g></g></svg>