<svg xmlns="http://www.w3.org/2000/svg" width="19.979" height="19.979" fill="#ffffff" viewBox="0 0 19.979 19.979"><path d="M41.99,32A10.121,10.121,0,0,0,32,42.244a10.224,10.224,0,0,0,6.832,9.718.783.783,0,0,0,.169.018.483.483,0,0,0,.513-.508c0-.245-.009-.887-.013-1.744a4.567,4.567,0,0,1-1.008.12,2.321,2.321,0,0,1-2.359-1.494,2.705,2.705,0,0,0-1.11-1.5c-.87-.611,0-.629.062-.629h0a2.148,2.148,0,0,1,1.53,1.061,1.961,1.961,0,0,0,1.766,1.119,2.81,2.81,0,0,0,1.142-.268,2.213,2.213,0,0,1,.633-1.369c-2.216-.259-4.549-1.137-4.549-5.062a4.009,4.009,0,0,1,1.026-2.747,3.771,3.771,0,0,1,.1-2.712.831.831,0,0,1,.223-.022A4.749,4.749,0,0,1,39.483,37.3a9.286,9.286,0,0,1,5,0,4.749,4.749,0,0,1,2.524-1.075.831.831,0,0,1,.223.022,3.771,3.771,0,0,1,.1,2.712,4.026,4.026,0,0,1,1.026,2.747c0,3.933-2.337,4.8-4.562,5.053a2.484,2.484,0,0,1,.678,1.9c0,1.369-.013,2.475-.013,2.81a.481.481,0,0,0,.508.513.863.863,0,0,0,.178-.018A10.281,10.281,0,0,0,41.99,32Z" transform="translate(-32 -32)"/></svg>