<svg xmlns="http://www.w3.org/2000/svg" xmlns:xlink="http://www.w3.org/1999/xlink" width="18" height="20" viewBox="0 0 18 20" fill="#a6a6a6"><defs><clipPath id="a"><rect width="18" height="20" transform="translate(-0.271 -0.611)" fill="none"/></clipPath></defs><g transform="translate(0.271 0.611)" clip-path="url(#a)"><g transform="translate(0.017 1.079)"><path d="M16.434,16.624h0l-4.994-.041a.454.454,0,0,1-.321-.132L1.182,6.723A3.925,3.925,0,1,1,6.673,1.114l10.046,9.83a.46.46,0,0,1,.14.328l.043,4.884a.478.478,0,0,1-.136.332.472.472,0,0,1-.332.136Zm-4.8-.968,4.327.035-.03-4.219-9.911-9.7A3,3,0,1,0,1.831,6.055Z" transform="translate(-0.002 -0.003)"/><path d="M9.746,14.947a.464.464,0,0,1-.319-.8l4.7-4.6a.465.465,0,0,1,.649.665l-4.707,4.6a.456.456,0,0,1-.325.132Z" transform="translate(-7.461 -7.566)"/></g></g></svg>