<svg xmlns="http://www.w3.org/2000/svg" xmlns:xlink="http://www.w3.org/1999/xlink" width="50" height="42" viewBox="0 0 50 42" fill="#fff"><defs><clipPath id="a"><rect width="50" height="42" transform="translate(680 2687.962)" fill="none"/></clipPath></defs><g transform="translate(-75 -57)"><g transform="translate(-605 -2630.962)" clip-path="url(#a)"><path d="M23.6,18.554a4.21,4.21,0,1,0,4.21,4.21A4.216,4.216,0,0,0,23.6,18.554ZM11.816,31.132l-.929-.23C3.971,29.149,0,26.184,0,22.757s3.973-6.392,10.887-8.144l.929-.23.261.922a46.349,46.349,0,0,0,2.682,7.038l.2.415-.2.422a45.8,45.8,0,0,0-2.682,7.038ZM10.457,16.764C5.2,18.239,1.975,20.5,1.975,22.757s3.228,4.51,8.482,5.994a49.093,49.093,0,0,1,2.328-5.994,48.619,48.619,0,0,1-2.328-5.994ZM35.389,31.132l-.261-.922a45.97,45.97,0,0,0-2.682-7.031l-.2-.422.2-.422A45.8,45.8,0,0,0,35.128,15.3l.261-.915.929.23c6.916,1.752,10.887,4.718,10.887,8.144S43.233,29.149,36.319,30.9Zm-.969-8.375a47.977,47.977,0,0,1,2.328,5.994c5.263-1.483,8.482-3.741,8.482-5.994S42,18.248,36.748,16.764a49.658,49.658,0,0,1-2.328,5.994Zm-23.979-6-.261-.922C8.236,8.981,8.827,4.064,11.8,2.35,14.721.667,19.4,2.657,24.309,7.7l.668.684-.668.684A46.406,46.406,0,0,0,19.546,14.9l-.268.376-.462.038a46.633,46.633,0,0,0-7.445,1.2ZM14.175,3.719a2.712,2.712,0,0,0-1.391.338c-1.952,1.13-2.3,5.048-.953,10.334a49.186,49.186,0,0,1,6.362-.991,48.426,48.426,0,0,1,4.033-5c-3.065-2.989-5.97-4.679-8.051-4.679ZM33.038,43.762h0c-2.8,0-6.408-2.105-10.142-5.946l-.668-.684.668-.684a46.406,46.406,0,0,0,4.763-5.839l.261-.376.462-.046a45.24,45.24,0,0,0,7.453-1.2l.929-.23.261.922c1.944,6.854,1.353,11.763-1.621,13.476a4.566,4.566,0,0,1-2.366.606Zm-8.06-6.646c3.065,2.989,5.97,4.679,8.051,4.679h.007a2.778,2.778,0,0,0,1.384-.338c1.952-1.13,2.306-5.048.953-10.334a48.155,48.155,0,0,1-6.362.984,48.513,48.513,0,0,1-4.033,5.01Zm11.787-20.36-.929-.238a47.2,47.2,0,0,0-7.453-1.2l-.462-.038-.261-.376A46.406,46.406,0,0,0,22.9,9.066l-.668-.684L22.9,7.7C27.805,2.657,32.485.667,35.4,2.35c2.974,1.713,3.565,6.631,1.621,13.484ZM29.012,13.4a49,49,0,0,1,6.362.991c1.353-5.286,1-9.205-.953-10.334s-5.6.6-9.443,4.341a50.255,50.255,0,0,1,4.033,5ZM14.175,43.762a4.6,4.6,0,0,1-2.374-.606C8.827,41.443,8.236,36.532,10.18,29.68l.261-.922.929.23a46.234,46.234,0,0,0,7.445,1.2l.462.046.261.376A46.406,46.406,0,0,0,24.3,36.448l.668.684-.668.684c-3.726,3.841-7.33,5.946-10.127,5.946ZM11.832,31.124c-1.353,5.286-1,9.205.953,10.334,1.944,1.106,5.594-.6,9.443-4.341a48.512,48.512,0,0,1-4.033-5.01,47.968,47.968,0,0,1-6.362-.984ZM23.6,32.361c-1.621,0-3.281-.069-4.948-.208l-.462-.038-.268-.384c-.937-1.353-1.829-2.742-2.651-4.172s-1.59-2.888-2.3-4.38l-.2-.422.2-.422c.707-1.49,1.468-2.95,2.3-4.38.814-1.406,1.705-2.812,2.651-4.172l.268-.384.462-.038a58.95,58.95,0,0,1,9.9,0l.462.038.268.384a59.119,59.119,0,0,1,4.948,8.552l.2.422-.2.422a58.445,58.445,0,0,1-4.948,8.552l-.268.384-.462.038C26.891,32.291,25.224,32.361,23.6,32.361Zm-4.318-2.136a55.977,55.977,0,0,0,8.643,0,57.575,57.575,0,0,0,4.318-7.469,55.362,55.362,0,0,0-4.325-7.469,55.881,55.881,0,0,0-8.636,0,55.026,55.026,0,0,0-4.325,7.469A56.977,56.977,0,0,0,19.285,30.224Z" transform="translate(681.397 2686.199)" /></g></g></svg>