<svg xmlns="http://www.w3.org/2000/svg" xmlns:xlink="http://www.w3.org/1999/xlink" width="18" height="20" viewBox="0 0 18 20"><defs><clipPath id="a" ><rect width="18" height="20" transform="translate(0 -1.058)" fill="#a6a6a6"/></clipPath></defs><g transform="translate(0 1.058)" clip-path="url(#a)"><g transform="translate(1.887 -0.016)"><path d="M11.727,18.764H2.5A2.428,2.428,0,0,1,0,16.42V2.346A2.43,2.43,0,0,1,2.5,0h9.228a2.43,2.43,0,0,1,2.5,2.346V16.42a2.428,2.428,0,0,1-2.5,2.344ZM2.5.938A1.459,1.459,0,0,0,1,2.346V16.42a1.459,1.459,0,0,0,1.5,1.406h9.228a1.459,1.459,0,0,0,1.5-1.406V2.346a1.459,1.459,0,0,0-1.5-1.408Z" /><path d="M22.4,17.416H15.63a.511.511,0,0,1-.461-.226.446.446,0,0,1,0-.488.511.511,0,0,1,.461-.226H22.4a.511.511,0,0,1,.461.226.446.446,0,0,1,0,.488A.511.511,0,0,1,22.4,17.416Z" transform="translate(-11.902 -13.202)" /><path d="M22.4,32.676H15.63a.511.511,0,0,1-.461-.226.446.446,0,0,1,0-.488.511.511,0,0,1,.461-.226H22.4a.511.511,0,0,1,.461.226.446.446,0,0,1,0,.488A.511.511,0,0,1,22.4,32.676Z" transform="translate(-11.902 -25.431)" /><path d="M22.531,47.948H15.759a.47.47,0,1,1,0-.938h6.771a.47.47,0,1,1,0,.938Z" transform="translate(-12.031 -37.672)" /><path d="M19.173,63.218H15.749a.47.47,0,1,1,0-.938h3.424a.47.47,0,1,1,0,.938Z" transform="translate(-12.023 -49.909)" /></g></g></svg>