<svg xmlns="http://www.w3.org/2000/svg" xmlns:xlink="http://www.w3.org/1999/xlink" width="50" height="42" viewBox="0 0 50 42"><defs><clipPath id="a"><rect width="50" height="42" transform="translate(680 2687.962)" fill="none"/></clipPath></defs><g transform="translate(-75 -57)"><g transform="translate(-605 -2630.962)" clip-path="url(#a)"><g transform="translate(684.183 2695.543)"><circle cx="0.792" cy="0.792" r="0.792" transform="translate(21.402 18.414)" fill="#fff"/><line x1="18.738" transform="translate(14.085 21.928)" fill="none" stroke="#fff" stroke-linecap="round" stroke-linejoin="round" stroke-width="1.023"/><path d="M7.282,8.092V2.312a1.8,1.8,0,0,1,1.8-1.8H35.3a1.8,1.8,0,0,1,1.809,1.8v8.872" fill="none" stroke="#fff" stroke-linecap="round" stroke-linejoin="round" stroke-width="1.023"/><path d="M26.026,26.4H18.362l.815-4.41h6.028Z" fill="none" stroke="#fff" stroke-linecap="round" stroke-linejoin="round" stroke-width="0.954"/><line x2="10.282" transform="translate(17.05 26.396)" fill="none" stroke="#fff" stroke-linecap="round" stroke-linejoin="round" stroke-width="0.954"/><line x1="18.738" transform="translate(14.085 16.68)" fill="none" stroke="#fff" stroke-linecap="round" stroke-linejoin="round" stroke-width="0.954"/><rect width="13.611" height="18.316" rx="1.272" transform="translate(0.48 8.08)" fill="none" stroke="#fff" stroke-linecap="round" stroke-linejoin="round" stroke-width="0.954"/><rect width="8.56" height="15.206" rx="1.272" transform="translate(32.823 11.184)" fill="none" stroke="#fff" stroke-linecap="round" stroke-linejoin="round" stroke-width="0.954"/><circle cx="0.48" cy="0.48" r="0.48" transform="translate(36.626 24.552)" fill="#fff"/><circle cx="0.543" cy="0.543" r="0.543" transform="translate(6.739 24.194)" fill="#fff"/><line x2="1.861" transform="translate(36.112 12.964)" fill="none" stroke="#fff" stroke-linecap="round" stroke-linejoin="round" stroke-width="0.954"/><line x2="8.381" transform="translate(32.916 23.708)" fill="none" stroke="#fff" stroke-linecap="round" stroke-linejoin="round" stroke-width="0.954"/><line x2="13.328" transform="translate(0.618 23.159)" fill="none" stroke="#fff" stroke-linecap="round" stroke-linejoin="round" stroke-width="0.954"/></g></g></g></svg>