<svg xmlns="http://www.w3.org/2000/svg" xmlns:xlink="http://www.w3.org/1999/xlink" width="50" height="42" viewBox="0 0 50 42" <svg xmlns="http://www.w3.org/2000/svg" xmlns:xlink="http://www.w3.org/1999/xlink" width="50" height="42" viewBox="0 0 50 42" fill="#fff"><defs><clipPath id="a"><rect width="50" height="42" transform="translate(680 2687.962)" fill="none"/></clipPath></defs><g transform="translate(-75 -57)"><g transform="translate(-605 -2630.962)" clip-path="url(#a)"><g transform="translate(684.461 2688.423)"><circle cx="0.858" cy="0.858" r="0.858" transform="translate(3.165 2.229)" /><circle cx="0.858" cy="0.858" r="0.858" transform="translate(5.9 2.229)" /><circle cx="0.858" cy="0.858" r="0.858" transform="translate(8.636 2.229)" /><path d="M33.5,28.592V2.086A1.547,1.547,0,0,0,31.945.539H2.086A1.54,1.54,0,0,0,.539,2.086V29.469a1.54,1.54,0,0,0,1.547,1.547H27.708" fill="none" stroke="#fff" stroke-linecap="round" stroke-linejoin="round" stroke-width="1.072"/><line x2="32.958" transform="translate(0.539 5.647)" fill="none" stroke="#fff" stroke-linecap="round" stroke-linejoin="round" stroke-width="1.072"/><path d="M22.873,19.91l.468-.468,2.586,2.58" fill="none" stroke="#fff" stroke-linecap="round" stroke-linejoin="round" stroke-width="1.072"/><path d="M22.893,24.914l-2.508-2.508.409-.416" fill="none" stroke="#fff" stroke-linecap="round" stroke-linejoin="round" stroke-width="1.072"/><path d="M22.094,16.245a3.492,3.492,0,1,1-4.939,4.939c-3.509-3.5-1.826-9.975-1.826-9.975C18.195,15.355,20.709,14.946,22.094,16.245Z" fill="none" stroke="#fff" stroke-linecap="round" stroke-linejoin="round" stroke-width="1.072"/><path d="M38.937,40.061c-4.581-3.619-17.084-12.444-16.089-16.3L24.9,21.71c5.075.988,12.606,12,16.037,16.369a1.41,1.41,0,0,1-.11,1.871h0A1.41,1.41,0,0,1,38.937,40.061Z" fill="none" stroke="#fff" stroke-linecap="round" stroke-linejoin="round" stroke-width="1.072"/><line x2="7.349" transform="translate(4.204 18.156)" fill="none" stroke="#fff" stroke-linecap="round" stroke-linejoin="round" stroke-width="1.072"/><line x2="8.876" transform="translate(4.087 20.528)" fill="none" stroke="#fff" stroke-linecap="round" stroke-linejoin="round" stroke-width="1.072"/><line x2="10.41" transform="translate(3.964 22.906)" fill="none" stroke="#fff" stroke-linecap="round" stroke-linejoin="round" stroke-width="1.072"/><rect width="7.005" height="2.04" transform="translate(4.373 13.737)" fill="none" stroke="#fff" stroke-linecap="round" stroke-linejoin="round" stroke-width="1.072"/></g></g></g></svg><defs><clipPath id="a"><rect width="50" height="42" transform="translate(680 2687.962)" fill="none"/></clipPath></defs><g transform="translate(-75 -57)"><g transform="translate(-605 -2630.962)" clip-path="url(#a)"><g transform="translate(684.183 2695.543)"><circle cx="0.792" cy="0.792" r="0.792" transform="translate(21.402 18.414)" fill="#fff"/><line x1="18.738" transform="translate(14.085 21.928)" fill="none" stroke="#fff" stroke-linecap="round" stroke-linejoin="round" stroke-width="1.023"/><path d="M7.282,8.092V2.312a1.8,1.8,0,0,1,1.8-1.8H35.3a1.8,1.8,0,0,1,1.809,1.8v8.872" fill="none" stroke="#fff" stroke-linecap="round" stroke-linejoin="round" stroke-width="1.023"/><path d="M26.026,26.4H18.362l.815-4.41h6.028Z" fill="none" stroke="#fff" stroke-linecap="round" stroke-linejoin="round" stroke-width="0.954"/><line x2="10.282" transform="translate(17.05 26.396)" fill="none" stroke="#fff" stroke-linecap="round" stroke-linejoin="round" stroke-width="0.954"/><line x1="18.738" transform="translate(14.085 16.68)" fill="none" stroke="#fff" stroke-linecap="round" stroke-linejoin="round" stroke-width="0.954"/><rect width="13.611" height="18.316" rx="1.272" transform="translate(0.48 8.08)" fill="none" stroke="#fff" stroke-linecap="round" stroke-linejoin="round" stroke-width="0.954"/><rect width="8.56" height="15.206" rx="1.272" transform="translate(32.823 11.184)" fill="none" stroke="#fff" stroke-linecap="round" stroke-linejoin="round" stroke-width="0.954"/><circle cx="0.48" cy="0.48" r="0.48" transform="translate(36.626 24.552)" fill="#fff"/><circle cx="0.543" cy="0.543" r="0.543" transform="translate(6.739 24.194)" fill="#fff"/><line x2="1.861" transform="translate(36.112 12.964)" fill="none" stroke="#fff" stroke-linecap="round" stroke-linejoin="round" stroke-width="0.954"/><line x2="8.381" transform="translate(32.916 23.708)" fill="none" stroke="#fff" stroke-linecap="round" stroke-linejoin="round" stroke-width="0.954"/><line x2="13.328" transform="translate(0.618 23.159)" fill="none" stroke="#fff" stroke-linecap="round" stroke-linejoin="round" stroke-width="0.954"/></g></g></g></svg>