<svg xmlns="http://www.w3.org/2000/svg" xmlns:xlink="http://www.w3.org/1999/xlink" width="50" height="42" viewBox="0 0 50 42"><defs><clipPath id="a"><rect width="50" height="42" transform="translate(680 2687.962)" fill="none"/></clipPath></defs><g transform="translate(-75 -57)"><g transform="translate(-605 -2630.962)" clip-path="url(#a)"><path d="M22.179,31.9C22.156,31.942,22.134,31.977,22.179,31.9Zm18.3-6.393a9.629,9.629,0,0,0-4.262.992,9.05,9.05,0,0,1-.955-2.212,5.9,5.9,0,0,1-.081-1.859,15.656,15.656,0,0,1,.558-2c-.007-.081-.1-.485-1.051-.492s-1.763.184-1.859.434a8.95,8.95,0,0,0-.389,1.4,34.033,34.033,0,0,1-2.872,5.533,5.705,5.705,0,0,1-.654-1.617,5.9,5.9,0,0,1-.081-1.859,15.656,15.656,0,0,1,.558-2c-.007-.081-.1-.485-1.049-.492s-1.763.184-1.859.434-.2.838-.389,1.4-2.491,5.68-3.092,7.01c-.309.676-.573,1.22-.764,1.587-.029.059-.051.1-.066.125.022-.037.037-.073.037-.059-.162.316-.257.492-.257.492v.007c-.125.235-.265.448-.331.448a3.048,3.048,0,0,1,.022-1.462c.345-1.778,1.161-4.541,1.154-4.636-.007-.051.154-.529-.536-.786a.865.865,0,0,0-.97.162c-.059,0-.1.147-.1.147s.742-3.115-1.425-3.115c-1.352,0-3.233,1.484-4.157,2.829-.58.316-1.837,1-3.16,1.727l-1.521.838c-.037-.037-.066-.073-.1-.11-2.63-2.807-7.486-4.791-7.28-8.56.073-1.374.551-4.982,9.338-9.361,7.2-3.586,12.957-2.6,13.949-.411,1.425,3.123-3.079,8.935-10.556,9.773-2.851.316-4.348-.786-4.723-1.2-.389-.434-.448-.456-.6-.375-.242.132-.088.514,0,.742a4.427,4.427,0,0,0,2.7,2.124,14.314,14.314,0,0,0,8.756-.867c4.539-1.749,8.074-6.62,7.036-10.7C28.4,5.4,21.528,4.043,15.031,6.35A32.67,32.67,0,0,0,3.96,12.7C.382,16.049-.19,18.966.046,20.186c.838,4.328,6.8,7.149,9.189,9.236-.118.066-.228.125-.331.184-1.2.6-5.744,2.976-6.883,5.489-1.286,2.851.213,4.894,1.2,5.173a7.337,7.337,0,0,0,7.9-3.2,7.953,7.953,0,0,0,.705-7.311c-.007-.022-.022-.037-.029-.059.309-.184.625-.367.941-.551.61-.36,1.205-.691,1.727-.977a11.413,11.413,0,0,0-.617,3.13,6.5,6.5,0,0,0,1.4,4.534,1.542,1.542,0,0,0,1.132.367c1.014,0,1.47-.838,1.977-1.837.625-1.22,1.176-2.638,1.176-2.638s-.691,3.836,1.2,3.836c.691,0,1.381-.889,1.69-1.345v.007s.015-.029.051-.088c.073-.11.11-.176.11-.176v-.022c.279-.478.889-1.572,1.808-3.38,1.19-2.337,2.328-5.254,2.328-5.254a15.015,15.015,0,0,0,.456,1.9,17.748,17.748,0,0,0,.985,2.2c-.279.382-.448.6-.448.6a.02.02,0,0,0,.007.015c-.22.294-.47.61-.727.918a26.034,26.034,0,0,0-2.2,2.763.751.751,0,0,0,.206,1.007,1.787,1.787,0,0,0,1.154.184,5.1,5.1,0,0,0,1.727-.4,6.041,6.041,0,0,0,1.484-.779,3.317,3.317,0,0,0,1.425-2.924,6.085,6.085,0,0,0-.536-2.072c.081-.118.169-.242.25-.367a39.26,39.26,0,0,0,2.579-4.454,14.766,14.766,0,0,0,.456,1.9,12.968,12.968,0,0,0,.838,1.888,8.053,8.053,0,0,0-2.5,3.24c-.544,1.565-.118,2.27.683,2.432a2.465,2.465,0,0,0,1.256-.257,5.855,5.855,0,0,0,1.586-.816,3.546,3.546,0,0,0,1.747-2.91,5.466,5.466,0,0,0-.4-1.719,8.972,8.972,0,0,1,4.563-.529c4.091.478,4.892,3.035,4.738,4.1a2.717,2.717,0,0,1-1.3,1.837c-.287.176-.375.242-.353.375.037.191.169.184.411.14a3.192,3.192,0,0,0,2.226-2.844c.118-2.5-2.285-5.246-6.54-5.224ZM8.948,36.138C7.6,37.615,5.7,38.173,4.886,37.7c-.874-.508-.529-2.682,1.137-4.256a21.774,21.774,0,0,1,3.189-2.381c.2-.118.485-.294.838-.507.059-.037.088-.051.088-.051.066-.044.14-.081.213-.125a5.866,5.866,0,0,1-1.4,5.753Zm9.872-6.716c-.47,1.154-1.461,4.093-2.065,3.938-.514-.132-.83-2.373-.1-4.578a10.134,10.134,0,0,1,1.609-2.946c.742-.83,1.558-1.095,1.749-.764.257.434-.9,3.63-1.19,4.35Zm8.156,3.894c-.2.1-.382.169-.47.118-.066-.037.081-.176.081-.176s1.021-1.095,1.425-1.594c.235-.294.507-.639.8-1.021,0,.037.007.073.007.118a3.405,3.405,0,0,1-1.846,2.557Zm6.29-1.433c-.147-.1-.125-.448.367-1.521a5.722,5.722,0,0,1,1.4-1.8,2.65,2.65,0,0,1,.14.794A2.59,2.59,0,0,1,33.266,31.883Z" transform="translate(681.599 2686.113)" fill="#fff"/></g></g></svg>