<svg xmlns="http://www.w3.org/2000/svg" xmlns:xlink="http://www.w3.org/1999/xlink" width="50" height="42" viewBox="0 0 50 42"><defs><clipPath id="a"><rect width="50" height="42" transform="translate(680 2687.962)" fill="none"/></clipPath></defs><g transform="translate(-75 -57)"><g transform="translate(-605 -2630.962)" clip-path="url(#a)"><path d="M37.442,11.9A18.842,18.842,0,0,1,30.391,37.19l5.744-16.616a17.7,17.7,0,0,0,1.431-6.738,14.813,14.813,0,0,0-.123-1.935Zm-13.919.184c1.131-.055,2.146-.184,2.146-.184a.786.786,0,0,0-.116-1.567s-3.059.232-5.022.232c-1.853,0-4.973-.259-4.973-.259a.776.776,0,0,0-.129,1.546s.94.1,1.962.157l2.93,8.025L16.187,32.387,9.341,12.03c1.131-.047,2.153-.17,2.153-.17a.786.786,0,0,0-.116-1.567s-3.045.245-5.014.245c-.348,0-.763-.013-1.2-.027A19.061,19.061,0,0,1,20.928,2.116,18.729,18.729,0,0,1,33.635,7.055c-.082,0-.157-.013-.246-.013a3.259,3.259,0,0,0-3.161,3.338c0,1.554.9,2.868,1.853,4.415a9.932,9.932,0,0,1,1.546,5.192A22.578,22.578,0,0,1,32.2,26.057L30.323,32.3l-6.8-20.247Zm-2.6,27.652a18.749,18.749,0,0,1-5.315-.763L21.255,22.57l5.784,15.847a2.4,2.4,0,0,0,.136.259,18.769,18.769,0,0,1-6.247,1.063ZM2.112,20.928a18.764,18.764,0,0,1,1.628-7.657l8.972,24.593a18.836,18.836,0,0,1-10.6-16.936ZM20.928,0A20.928,20.928,0,1,0,41.857,20.928,20.96,20.96,0,0,0,20.928,0Z" transform="translate(684.186 2688.053)" fill="#fff"/></g></g></svg>